<mxfile host="www.draw.io" modified="2019-12-09T06:19:32.230Z" agent="Mozilla/5.0 (Windows NT 10.0; Win64; x64) AppleWebKit/537.36 (KHTML, like Gecko) Chrome/78.0.3904.108 Safari/537.36" etag="GpkNBrNqLoPA7NXJMS4G" version="12.3.8" type="github" pages="1">
  <diagram id="6a731a19-8d31-9384-78a2-239565b7b9f0" name="Page-1">
    <mxGraphModel dx="1422" dy="1589" grid="1" gridSize="10" guides="1" tooltips="1" connect="1" arrows="1" fold="1" page="1" pageScale="1" pageWidth="1169" pageHeight="827" background="#ffffff" math="0" shadow="0">
      <root>
        <mxCell id="0"/>
        <mxCell id="1" parent="0"/>
        <mxCell id="Bsa1h68NaCAKpPHS5MsZ-72" style="edgeStyle=orthogonalEdgeStyle;rounded=0;orthogonalLoop=1;jettySize=auto;html=1;exitX=0.5;exitY=1;exitDx=0;exitDy=0;exitPerimeter=0;" edge="1" parent="1" source="Bsa1h68NaCAKpPHS5MsZ-73" target="Bsa1h68NaCAKpPHS5MsZ-75">
          <mxGeometry relative="1" as="geometry"/>
        </mxCell>
        <mxCell id="Bsa1h68NaCAKpPHS5MsZ-73" value="开启事物" style="shape=mxgraph.flowchart.data;strokeWidth=2;gradientColor=none;gradientDirection=north;fontStyle=0;html=1;" vertex="1" parent="1">
          <mxGeometry x="130" y="-590" width="170" height="46" as="geometry"/>
        </mxCell>
        <mxCell id="Bsa1h68NaCAKpPHS5MsZ-74" style="edgeStyle=orthogonalEdgeStyle;rounded=0;orthogonalLoop=1;jettySize=auto;html=1;exitX=0.5;exitY=1;exitDx=0;exitDy=0;exitPerimeter=0;entryX=0.5;entryY=0;entryDx=0;entryDy=0;entryPerimeter=0;" edge="1" parent="1" source="Bsa1h68NaCAKpPHS5MsZ-75" target="Bsa1h68NaCAKpPHS5MsZ-77">
          <mxGeometry relative="1" as="geometry"/>
        </mxCell>
        <mxCell id="Bsa1h68NaCAKpPHS5MsZ-75" value="查询账单是否已退" style="shape=mxgraph.flowchart.data;strokeWidth=2;gradientColor=none;gradientDirection=north;fontStyle=0;html=1;" vertex="1" parent="1">
          <mxGeometry x="130" y="-522" width="170" height="46" as="geometry"/>
        </mxCell>
        <mxCell id="Bsa1h68NaCAKpPHS5MsZ-76" style="edgeStyle=orthogonalEdgeStyle;rounded=0;orthogonalLoop=1;jettySize=auto;html=1;exitX=0.5;exitY=1;exitDx=0;exitDy=0;exitPerimeter=0;" edge="1" parent="1" source="Bsa1h68NaCAKpPHS5MsZ-77">
          <mxGeometry relative="1" as="geometry">
            <mxPoint x="215" y="-363" as="targetPoint"/>
          </mxGeometry>
        </mxCell>
        <mxCell id="Bsa1h68NaCAKpPHS5MsZ-77" value="保存账单表" style="shape=mxgraph.flowchart.data;strokeWidth=2;gradientColor=none;gradientDirection=north;fontStyle=0;html=1;" vertex="1" parent="1">
          <mxGeometry x="130" y="-443" width="170" height="46" as="geometry"/>
        </mxCell>
        <mxCell id="Bsa1h68NaCAKpPHS5MsZ-78" style="edgeStyle=orthogonalEdgeStyle;rounded=0;orthogonalLoop=1;jettySize=auto;html=1;exitX=0.5;exitY=1;exitDx=0;exitDy=0;exitPerimeter=0;entryX=0.5;entryY=0;entryDx=0;entryDy=0;entryPerimeter=0;" edge="1" parent="1" source="Bsa1h68NaCAKpPHS5MsZ-79" target="Bsa1h68NaCAKpPHS5MsZ-81">
          <mxGeometry relative="1" as="geometry"/>
        </mxCell>
        <mxCell id="Bsa1h68NaCAKpPHS5MsZ-79" value="保存附加表" style="shape=mxgraph.flowchart.data;strokeWidth=2;gradientColor=none;gradientDirection=north;fontStyle=0;html=1;" vertex="1" parent="1">
          <mxGeometry x="130" y="-362" width="170" height="46" as="geometry"/>
        </mxCell>
        <mxCell id="Bsa1h68NaCAKpPHS5MsZ-80" style="edgeStyle=orthogonalEdgeStyle;rounded=0;orthogonalLoop=1;jettySize=auto;html=1;exitX=0.5;exitY=1;exitDx=0;exitDy=0;exitPerimeter=0;entryX=0.5;entryY=0;entryDx=0;entryDy=0;entryPerimeter=0;" edge="1" parent="1" source="Bsa1h68NaCAKpPHS5MsZ-81" target="Bsa1h68NaCAKpPHS5MsZ-83">
          <mxGeometry relative="1" as="geometry"/>
        </mxCell>
        <mxCell id="Bsa1h68NaCAKpPHS5MsZ-81" value="保存菜品表" style="shape=mxgraph.flowchart.data;strokeWidth=2;gradientColor=none;gradientDirection=north;fontStyle=0;html=1;" vertex="1" parent="1">
          <mxGeometry x="130" y="-290" width="170" height="46" as="geometry"/>
        </mxCell>
        <mxCell id="Bsa1h68NaCAKpPHS5MsZ-82" style="edgeStyle=orthogonalEdgeStyle;rounded=0;orthogonalLoop=1;jettySize=auto;html=1;exitX=0.5;exitY=1;exitDx=0;exitDy=0;exitPerimeter=0;entryX=0.5;entryY=0;entryDx=0;entryDy=0;entryPerimeter=0;" edge="1" parent="1" source="Bsa1h68NaCAKpPHS5MsZ-83" target="Bsa1h68NaCAKpPHS5MsZ-85">
          <mxGeometry relative="1" as="geometry"/>
        </mxCell>
        <mxCell id="Bsa1h68NaCAKpPHS5MsZ-83" value="保存套餐明细表" style="shape=mxgraph.flowchart.data;strokeWidth=2;gradientColor=none;gradientDirection=north;fontStyle=0;html=1;" vertex="1" parent="1">
          <mxGeometry x="130" y="-216" width="170" height="46" as="geometry"/>
        </mxCell>
        <mxCell id="Bsa1h68NaCAKpPHS5MsZ-84" style="edgeStyle=orthogonalEdgeStyle;rounded=0;orthogonalLoop=1;jettySize=auto;html=1;exitX=0.5;exitY=1;exitDx=0;exitDy=0;exitPerimeter=0;" edge="1" parent="1" source="Bsa1h68NaCAKpPHS5MsZ-85">
          <mxGeometry relative="1" as="geometry">
            <mxPoint x="215" y="-73" as="targetPoint"/>
          </mxGeometry>
        </mxCell>
        <mxCell id="Bsa1h68NaCAKpPHS5MsZ-85" value="保存支付方式" style="shape=mxgraph.flowchart.data;strokeWidth=2;gradientColor=none;gradientDirection=north;fontStyle=0;html=1;" vertex="1" parent="1">
          <mxGeometry x="130" y="-142" width="170" height="46" as="geometry"/>
        </mxCell>
        <mxCell id="Bsa1h68NaCAKpPHS5MsZ-86" style="edgeStyle=orthogonalEdgeStyle;rounded=0;orthogonalLoop=1;jettySize=auto;html=1;exitX=0.5;exitY=1;exitDx=0;exitDy=0;exitPerimeter=0;entryX=0.5;entryY=0;entryDx=0;entryDy=0;entryPerimeter=0;" edge="1" parent="1" source="Bsa1h68NaCAKpPHS5MsZ-87">
          <mxGeometry relative="1" as="geometry">
            <mxPoint x="215" y="5" as="targetPoint"/>
          </mxGeometry>
        </mxCell>
        <mxCell id="Bsa1h68NaCAKpPHS5MsZ-87" value="保存菜品明细表" style="shape=mxgraph.flowchart.data;strokeWidth=2;gradientColor=none;gradientDirection=north;fontStyle=0;html=1;" vertex="1" parent="1">
          <mxGeometry x="130" y="-69" width="170" height="46" as="geometry"/>
        </mxCell>
        <mxCell id="Bsa1h68NaCAKpPHS5MsZ-90" value="事物提交" style="shape=mxgraph.flowchart.data;strokeWidth=2;gradientColor=none;gradientDirection=north;fontStyle=0;html=1;" vertex="1" parent="1">
          <mxGeometry x="130" y="4" width="170" height="46" as="geometry"/>
        </mxCell>
        <mxCell id="Bsa1h68NaCAKpPHS5MsZ-92" value="select bills" style="rounded=1;whiteSpace=wrap;html=1;" vertex="1" parent="1">
          <mxGeometry x="341" y="-531" width="269" height="60" as="geometry"/>
        </mxCell>
        <mxCell id="Bsa1h68NaCAKpPHS5MsZ-98" value="select bills&lt;br&gt;insert bills&lt;br&gt;update bills" style="rounded=1;whiteSpace=wrap;html=1;" vertex="1" parent="1">
          <mxGeometry x="341" y="-450" width="269" height="60" as="geometry"/>
        </mxCell>
        <mxCell id="Bsa1h68NaCAKpPHS5MsZ-105" value="select fujia&lt;br&gt;insert fujia&lt;br&gt;select productsublist&lt;br&gt;update fujia&lt;br&gt;insert productsublist&lt;br&gt;update fujia" style="rounded=1;whiteSpace=wrap;html=1;" vertex="1" parent="1">
          <mxGeometry x="340" y="-380" width="269" height="82" as="geometry"/>
        </mxCell>
        <mxCell id="Bsa1h68NaCAKpPHS5MsZ-106" value="select KPARTITMES&lt;br&gt;insert KPARTITMES" style="rounded=1;whiteSpace=wrap;html=1;" vertex="1" parent="1">
          <mxGeometry x="340" y="-290" width="269" height="50" as="geometry"/>
        </mxCell>
        <mxCell id="Bsa1h68NaCAKpPHS5MsZ-107" value="select productsublist&lt;br&gt;insert fujia&lt;br&gt;insert productsublist&lt;br&gt;update fujia" style="rounded=1;whiteSpace=wrap;html=1;" vertex="1" parent="1">
          <mxGeometry x="339" y="-228" width="270" height="58" as="geometry"/>
        </mxCell>
        <mxCell id="Bsa1h68NaCAKpPHS5MsZ-108" value="select SETTLEMENT settlementoperate&lt;br&gt;insert SETTLEMENT" style="rounded=1;whiteSpace=wrap;html=1;" vertex="1" parent="1">
          <mxGeometry x="340" y="-148" width="270" height="58" as="geometry"/>
        </mxCell>
        <mxCell id="Bsa1h68NaCAKpPHS5MsZ-109" value="select KPARTITMES&lt;br&gt;insert kpartitmesitem&lt;br&gt;update fujia&lt;br&gt;update productsublist" style="rounded=1;whiteSpace=wrap;html=1;" vertex="1" parent="1">
          <mxGeometry x="340" y="-75" width="270" height="58" as="geometry"/>
        </mxCell>
        <mxCell id="Bsa1h68NaCAKpPHS5MsZ-112" value="" style="endArrow=classic;html=1;exitX=0.905;exitY=0.5;exitDx=0;exitDy=0;exitPerimeter=0;entryX=0;entryY=0.5;entryDx=0;entryDy=0;" edge="1" parent="1" source="Bsa1h68NaCAKpPHS5MsZ-75" target="Bsa1h68NaCAKpPHS5MsZ-92">
          <mxGeometry width="50" height="50" relative="1" as="geometry">
            <mxPoint x="790" y="-450" as="sourcePoint"/>
            <mxPoint x="310" y="-480" as="targetPoint"/>
          </mxGeometry>
        </mxCell>
        <mxCell id="Bsa1h68NaCAKpPHS5MsZ-113" value="" style="endArrow=classic;html=1;exitX=0.905;exitY=0.5;exitDx=0;exitDy=0;exitPerimeter=0;entryX=0;entryY=0.5;entryDx=0;entryDy=0;" edge="1" parent="1" source="Bsa1h68NaCAKpPHS5MsZ-77" target="Bsa1h68NaCAKpPHS5MsZ-98">
          <mxGeometry width="50" height="50" relative="1" as="geometry">
            <mxPoint x="293.8499999999999" y="-489" as="sourcePoint"/>
            <mxPoint x="351" y="-491" as="targetPoint"/>
          </mxGeometry>
        </mxCell>
        <mxCell id="Bsa1h68NaCAKpPHS5MsZ-114" value="" style="endArrow=classic;html=1;exitX=0.905;exitY=0.5;exitDx=0;exitDy=0;exitPerimeter=0;entryX=0;entryY=0.5;entryDx=0;entryDy=0;" edge="1" parent="1" source="Bsa1h68NaCAKpPHS5MsZ-79" target="Bsa1h68NaCAKpPHS5MsZ-105">
          <mxGeometry width="50" height="50" relative="1" as="geometry">
            <mxPoint x="303.8499999999999" y="-479" as="sourcePoint"/>
            <mxPoint x="361" y="-481" as="targetPoint"/>
          </mxGeometry>
        </mxCell>
        <mxCell id="Bsa1h68NaCAKpPHS5MsZ-115" value="" style="endArrow=classic;html=1;exitX=0.905;exitY=0.5;exitDx=0;exitDy=0;exitPerimeter=0;entryX=0;entryY=0.5;entryDx=0;entryDy=0;" edge="1" parent="1" source="Bsa1h68NaCAKpPHS5MsZ-81" target="Bsa1h68NaCAKpPHS5MsZ-106">
          <mxGeometry width="50" height="50" relative="1" as="geometry">
            <mxPoint x="313.8499999999999" y="-469" as="sourcePoint"/>
            <mxPoint x="371" y="-471" as="targetPoint"/>
          </mxGeometry>
        </mxCell>
        <mxCell id="Bsa1h68NaCAKpPHS5MsZ-116" value="" style="endArrow=classic;html=1;exitX=0.905;exitY=0.5;exitDx=0;exitDy=0;exitPerimeter=0;entryX=0;entryY=0.5;entryDx=0;entryDy=0;" edge="1" parent="1" source="Bsa1h68NaCAKpPHS5MsZ-83" target="Bsa1h68NaCAKpPHS5MsZ-107">
          <mxGeometry width="50" height="50" relative="1" as="geometry">
            <mxPoint x="323.8499999999999" y="-459" as="sourcePoint"/>
            <mxPoint x="381" y="-461" as="targetPoint"/>
          </mxGeometry>
        </mxCell>
        <mxCell id="Bsa1h68NaCAKpPHS5MsZ-117" value="" style="endArrow=classic;html=1;exitX=0.905;exitY=0.5;exitDx=0;exitDy=0;exitPerimeter=0;entryX=0;entryY=0.5;entryDx=0;entryDy=0;" edge="1" parent="1" source="Bsa1h68NaCAKpPHS5MsZ-85" target="Bsa1h68NaCAKpPHS5MsZ-108">
          <mxGeometry width="50" height="50" relative="1" as="geometry">
            <mxPoint x="333.8499999999999" y="-449" as="sourcePoint"/>
            <mxPoint x="391" y="-451" as="targetPoint"/>
          </mxGeometry>
        </mxCell>
        <mxCell id="Bsa1h68NaCAKpPHS5MsZ-118" value="" style="endArrow=classic;html=1;exitX=0.905;exitY=0.5;exitDx=0;exitDy=0;exitPerimeter=0;entryX=0;entryY=0.5;entryDx=0;entryDy=0;" edge="1" parent="1" source="Bsa1h68NaCAKpPHS5MsZ-87" target="Bsa1h68NaCAKpPHS5MsZ-109">
          <mxGeometry width="50" height="50" relative="1" as="geometry">
            <mxPoint x="343.8499999999999" y="-439" as="sourcePoint"/>
            <mxPoint x="401" y="-441" as="targetPoint"/>
          </mxGeometry>
        </mxCell>
      </root>
    </mxGraphModel>
  </diagram>
</mxfile>
